<?xml version="1.0" encoding="UTF-8"?> <svg xmlns="http://www.w3.org/2000/svg" width="657" height="376" viewBox="0 0 657 376" fill="none"><path fill-rule="evenodd" clip-rule="evenodd" d="M231.289 247.218H139.228L127.776 272.887C124.138 281.491 122.343 288.639 122.343 294.254C122.343 301.743 125.33 307.222 131.228 310.795C134.726 312.855 143.329 314.448 157.027 315.501V322.247H69.5962V315.501C79.0065 314.046 86.8071 310.069 92.8276 303.663C98.9262 297.165 106.463 283.812 115.333 263.558L209.327 53.8726H213.025L307.872 269.374C316.942 290.031 324.355 303.059 330.175 308.413C334.617 312.529 340.761 314.834 348.841 315.5V322.245H221.632V315.5H226.863C237.047 315.5 244.275 314.044 248.376 311.136C251.209 309.078 252.601 306.031 252.601 302.131C252.603 299.747 252.277 297.303 251.488 294.781C251.209 293.667 249.29 288.701 245.653 280.035L231.29 247.217L231.289 247.218V247.218ZM225.065 232.921L185.829 143.269L145.65 232.921H225.065V232.921ZM407.73 232.597L479.607 59.0349H586.106V65.7813H577.563C569.888 65.7813 563.665 67.1746 559.021 69.9514C555.786 71.8064 553.202 74.8478 551.282 79.2198C549.89 82.3922 549.162 90.6015 549.162 103.899V277.391C549.162 290.946 549.89 299.425 551.282 302.8C552.74 306.173 555.585 309.142 560.027 311.666C564.393 314.248 570.211 315.502 577.563 315.502H586.106V322.248H449.102V315.502H457.63C465.305 315.502 471.528 314.11 476.171 311.403C479.407 309.545 481.99 306.435 483.909 302.01C485.304 298.9 486.03 290.683 486.03 277.393L486.032 82.5934L384.901 322.248H380.258L277.737 84.3098V184.025L263.049 150.635V103.897C263.049 90.3362 262.383 81.8651 260.928 78.5542C259.534 75.1799 256.626 72.2026 252.199 69.6179C247.756 67.0402 241.877 65.7799 234.525 65.7799H226.12V59.0335H333.471L407.731 232.596L407.73 232.597V232.597ZM277.735 217.819V269.452C277.735 282.481 278.076 290.494 278.727 293.467C280.458 299.95 284.097 305.242 289.713 309.342C294.759 313.024 302.419 315.051 312.652 315.438H253.837C255.478 313.952 256.763 312.221 257.691 310.257V310.225C258.852 307.765 259.424 305.073 259.424 302.134C259.424 301.468 259.393 300.787 259.347 300.092C260.693 297.338 261.793 294.059 262.645 290.219C262.907 288.763 263.048 282.158 263.048 270.245V184.431L277.735 217.82V217.819V217.819Z" fill="#C8B3A1"></path></svg> 